HIERARCHY
ROOT Hips
{
	OFFSET 0.000000 0.000000 0.000000
	CHANNELS 6 Xposition Yposition Zposition Zrotation Yrotation Xrotation 
	JOINT LowerBack
	{
		OFFSET 0.000000 0.000000 0.000000
		CHANNELS 3 Zrotation Yrotation Xrotation
		JOINT Spine
		{
			OFFSET 0.028270 2.035590 -0.193380
			CHANNELS 3 Zrotation Yrotation Xrotation
			JOINT Spine1
			{
				OFFSET 0.056720 2.048850 -0.042750
				CHANNELS 3 Zrotation Yrotation Xrotation
				JOINT Neck
				{
					OFFSET 0.000000 0.000000 0.000000
					CHANNELS 3 Zrotation Yrotation Xrotation
					JOINT Neck1
					{
						OFFSET -0.054170 1.746240 0.172020
						CHANNELS 3 Zrotation Yrotation Xrotation
						JOINT Head
						{
							OFFSET 0.104070 1.761360 -0.123970
							CHANNELS 3 Zrotation Yrotation Xrotation
							End Site
							{
								OFFSET 0.000000 0.000000 0.000000
							}
						}
					}
				}
				JOINT LeftShoulder
				{
					OFFSET 0.000000 0.000000 0.000000
					CHANNELS 3 Zrotation Yrotation Xrotation
					JOINT LeftArm
					{
						OFFSET 3.362410 1.200890 -0.311210
						CHANNELS 3 Zrotation Yrotation Xrotation
						JOINT LeftForeArm
						{
							OFFSET 4.983000 -0.000000 -0.000000
							CHANNELS 3 Zrotation Yrotation Xrotation
							JOINT LeftHand
							{
								OFFSET 3.483560 -0.000000 -0.000000
								CHANNELS 3 Zrotation Yrotation Xrotation
								JOINT LeftFingerBase
								{
									OFFSET 0.000000 0.000000 0.000000
									CHANNELS 3 Zrotation Yrotation Xrotation
									JOINT LeftHandIndex1
									{
										OFFSET 0.715260 -0.000000 -0.000000
										CHANNELS 3 Zrotation Yrotation Xrotation
										End Site
										{
											OFFSET 0.000000 0.000000 0.000000
										}
									}
								}
								JOINT LThumb
								{
									OFFSET 0.000000 0.000000 0.000000
									CHANNELS 3 Zrotation Yrotation Xrotation
									End Site
									{
										OFFSET 0.000000 0.000000 0.000000
									}
								}
							}
						}
					}
				}
				JOINT RightShoulder
				{
					OFFSET 0.000000 0.000000 0.000000
					CHANNELS 3 Zrotation Yrotation Xrotation
					JOINT RightArm
					{
						OFFSET -3.136600 1.374050 -0.404650
						CHANNELS 3 Zrotation Yrotation Xrotation
						JOINT RightForeArm
						{
							OFFSET -5.241900 -0.000000 -0.000000
							CHANNELS 3 Zrotation Yrotation Xrotation
							JOINT RightHand
							{
								OFFSET -3.444170 -0.000000 -0.000000
								CHANNELS 3 Zrotation Yrotation Xrotation
								JOINT RightFingerBase
								{
									OFFSET 0.000000 0.000000 0.000000
									CHANNELS 3 Zrotation Yrotation Xrotation
									JOINT RightHandIndex1
									{
										OFFSET -0.622530 -0.000000 -0.000000
										CHANNELS 3 Zrotation Yrotation Xrotation
										End Site
										{
											OFFSET 0.000000 0.000000 0.000000
										}
									}
								}
								JOINT RThumb
								{
									OFFSET 0.000000 0.000000 0.000000
									CHANNELS 3 Zrotation Yrotation Xrotation
									End Site
									{
										OFFSET 0.000000 0.000000 0.000000
									}
								}
							}
						}
					}
				}
			}
		}
	}
}
}
MOTION
Frames: 18
Frame Time: 0.008333
-8.178953 17.092790 0.574469 -167.302276 87.248011 -163.729789 3.891293 -6.031075 -4.430534 0.628947 -6.490401 -2.866472 -5.333915 -6.452775 3.660548 10.107294 -24.586809 -11.820913 -1.901624 -0.091695 -1.010734 0.000000 0.000000 0.000000 6.125315 17.198264 0.822191 -39.657329 11.493194 3.568715 -1.499418 -62.895038 0.007927 -0.794140 -1.729688 0.012664 -0.104582 0.162093 0.000000 0.000000 0.000000 0.000000 0.000000 0.000000 0.000000 15.796791 -22.624066 -0.494402 71.213646 -20.932868 -7.400870 4.221439 31.689053 0.015638 6.518361 5.787162 0.328485 0.091376 -0.046617 -0.000000 0.000000 0.000000 0.000000 0.000000 0.000000 0.000000 
-7.936629 17.087737 0.574685 -163.128614 87.492717 -159.833626 4.321612 -5.874535 -4.275503 0.697011 -6.358357 -2.857497 -5.341517 -6.322229 3.623148 10.094446 -24.505944 -11.848716 -1.920235 -0.093512 -1.019756 0.000000 0.000000 0.000000 6.020767 17.245708 0.815162 -40.189982 12.112808 3.651919 -1.539697 -62.498804 0.008143 -0.979970 -1.620473 0.014767 -0.105907 0.153004 0.000000 0.000000 0.000000 0.000000 0.000000 0.000000 0.000000 15.819528 -22.434246 -0.466645 70.720588 -20.141668 -7.404661 4.224611 31.430408 0.015869 6.354664 5.809798 0.321397 0.092695 -0.048185 -0.000000 0.000000 0.000000 0.000000 0.000000 0.000000 0.000000 
-7.698307 17.081751 0.573861 -159.062565 87.760732 -156.040569 4.698100 -5.710121 -4.082284 0.750943 -6.212477 -2.840267 -5.351391 -6.178085 3.583336 10.087109 -24.391985 -11.874483 -1.939568 -0.095331 -1.028803 0.000000 0.000000 0.000000 5.900414 17.298524 0.805329 -40.789247 12.738256 3.755538 -1.583870 -61.986863 0.007847 -1.010835 -1.458486 0.013873 -0.109256 0.142992 0.000000 0.000000 0.000000 0.000000 0.000000 0.000000 0.000000 15.841217 -22.213662 -0.432372 70.244549 -19.236492 -7.402792 4.226200 31.115246 0.016043 6.165993 5.808243 0.311607 0.094133 -0.049748 -0.000000 0.000000 0.000000 0.000000 0.000000 0.000000 0.000000 
-7.463926 17.075208 0.572400 -155.111774 88.055219 -152.350916 5.015051 -5.539455 -3.861578 0.790670 -6.054393 -2.816383 -5.362766 -6.022000 3.542098 10.080568 -24.245301 -11.897006 -1.960029 -0.097204 -1.037504 0.000000 0.000000 0.000000 5.757678 17.366633 0.792867 -41.438724 13.357349 3.893720 -1.631569 -61.363999 0.007138 -0.893290 -1.260706 0.010783 -0.114388 0.132177 0.000000 0.000000 0.000000 0.000000 0.000000 0.000000 0.000000 15.861003 -21.963034 -0.393887 69.784796 -18.231436 -7.381587 4.226132 30.758934 0.016153 5.961271 5.782204 0.299816 0.095614 -0.051298 -0.000000 0.000000 0.000000 0.000000 0.000000 0.000000 0.000000 
-7.233129 17.068579 0.570678 -151.214946 88.378610 -148.695859 5.269996 -5.363204 -3.625667 0.816598 -5.885136 -2.787998 -5.375353 -5.854962 3.500036 10.070360 -24.061913 -11.914162 -1.983135 -0.099309 -1.045222 0.000000 0.000000 0.000000 5.588110 17.458767 0.778154 -42.126640 13.957860 4.077555 -1.683181 -60.631239 0.006171 -0.647441 -1.052301 0.006694 -0.120916 0.120689 0.000000 0.000000 0.000000 0.000000 0.000000 0.000000 0.000000 15.881443 -21.677190 -0.354013 69.339302 -17.151570 -7.344885 4.224480 30.389099 0.016176 5.759549 5.722724 0.286522 0.096985 -0.052794 -0.000000 0.000000 0.000000 0.000000 0.000000 0.000000 0.000000 
-7.005464 17.062217 0.569161 -147.424847 88.732620 -145.120904 5.454163 -5.183872 -3.387898 0.828682 -5.707168 -2.757160 -5.386054 -5.679584 3.459802 10.052370 -23.857980 -11.925897 -2.006653 -0.101451 -1.051793 0.000000 0.000000 0.000000 5.388052 17.579506 0.760907 -42.843980 14.537369 4.309797 -1.738533 -59.795102 0.005035 -0.300210 -0.829712 0.002704 -0.128364 0.108486 0.000000 0.000000 0.000000 0.000000 0.000000 0.000000 0.000000 15.894964 -21.375208 -0.314496 68.896549 -15.990349 -7.229611 4.221258 29.992106 0.016174 5.547633 5.661731 0.272929 0.098360 -0.054304 -0.000000 0.000000 0.000000 0.000000 0.000000 0.000000 0.000000 
-6.780366 17.056827 0.567823 -143.484564 89.112802 -141.363777 5.572136 -5.001244 -3.161811 0.828172 -5.521262 -2.726877 -5.395812 -5.496447 3.420489 10.023449 -23.618198 -11.927921 -2.034379 -0.104061 -1.055972 0.000000 0.000000 0.000000 5.160562 17.729920 0.741786 -43.592516 15.085579 4.590151 -1.799437 -58.848981 0.003946 0.107961 -0.629445 -0.000185 -0.136177 0.095761 0.000000 0.000000 0.000000 0.000000 0.000000 0.000000 0.000000 15.910381 -21.037858 -0.278419 68.456267 -14.795937 -7.085661 4.216863 29.619605 0.016094 5.364929 5.571038 0.259634 0.099439 -0.055714 -0.000000 0.000000 0.000000 0.000000 0.000000 0.000000 0.000000 
-6.557212 17.052889 0.566763 -139.152778 89.509885 -137.177674 5.623696 -4.818162 -2.960733 0.816424 -5.330850 -2.699585 -5.402050 -5.309055 3.383941 9.981173 -23.352616 -11.919389 -2.065195 -0.107073 -1.057382 0.000000 0.000000 0.000000 4.907895 17.907450 0.720808 -44.376173 15.601620 4.906973 -1.866939 -57.792944 0.003009 0.535909 -0.453846 -0.001878 -0.143817 0.082564 0.000000 0.000000 0.000000 0.000000 0.000000 0.000000 0.000000 15.923332 -20.676984 -0.247182 68.006720 -13.573996 -6.880079 4.211466 29.271205 0.015970 5.208469 5.467851 0.247337 0.100259 -0.057019 -0.000000 0.000000 0.000000 0.000000 0.000000 0.000000 0.000000 
-6.335477 17.050936 0.565857 -133.916536 89.906298 -132.046295 5.612599 -4.639501 -2.796029 0.795431 -5.141629 -2.677531 -5.403055 -5.123153 3.350956 9.924444 -23.063344 -11.898447 -2.099181 -0.110545 -1.055390 0.000000 0.000000 0.000000 4.635931 18.104202 0.698594 -45.203788 16.086695 5.242408 -1.942535 -56.625749 0.002327 0.941313 -0.308690 -0.002276 -0.150807 0.069021 0.000000 0.000000 0.000000 0.000000 0.000000 0.000000 0.000000 15.932761 -20.296467 -0.222142 67.541231 -12.341408 -6.612706 4.205280 28.957857 0.015807 5.085407 5.356416 0.236539 0.100773 -0.058171 -0.000000 0.000000 0.000000 0.000000 0.000000 0.000000 0.000000 
-6.114753 17.051444 0.564891 53.329378 89.731572 55.135519 5.548682 -4.475215 -2.676784 0.768809 -4.964665 -2.662604 -5.397537 -4.949948 3.321361 9.853119 -22.745688 -11.862390 -2.137015 -0.114603 -1.049144 0.000000 0.000000 0.000000 4.353026 18.306272 0.677014 -46.086565 16.544994 5.571431 -2.027929 -55.346984 0.001930 1.284231 -0.194511 -0.001780 -0.156785 0.055300 -0.000000 0.000000 0.000000 0.000000 0.000000 0.000000 0.000000 15.938415 -19.895356 -0.204852 67.055487 -11.122502 -6.304371 4.198422 28.693457 0.015612 5.006355 5.236705 0.227739 0.100896 -0.059097 -0.000000 0.000000 0.000000 0.000000 0.000000 0.000000 0.000000 
-5.894736 17.054760 0.563557 65.382517 89.476188 67.163269 5.470728 -4.345944 -2.610628 0.747768 -4.823412 -2.655969 -5.383807 -4.813307 3.295559 9.767120 -22.399605 -11.809954 -2.178617 -0.119296 -1.038203 0.000000 0.000000 0.000000 4.067500 18.492806 0.659565 -47.037315 16.978903 5.865902 -2.124925 -53.957898 0.001804 1.531177 -0.106534 -0.000891 -0.161536 0.041674 -0.000000 0.000000 0.000000 0.000000 0.000000 0.000000 0.000000 15.937241 -19.484153 -0.197700 66.545064 -9.933609 -5.966707 4.190507 28.484872 0.015379 4.973175 5.111738 0.220836 0.100588 -0.059677 -0.000000 0.000000 0.000000 0.000000 0.000000 0.000000 0.000000 
-5.675314 17.061089 0.561480 89.770860 89.499884 91.561705 5.563224 -4.270526 -2.602455 0.773254 -4.748977 -2.658035 -5.366001 -4.744922 3.273691 9.665409 -22.032836 -11.742973 -2.223071 -0.124630 -1.022947 0.000000 0.000000 0.000000 3.783742 18.642026 0.651060 -48.072467 17.389793 6.093953 -2.234605 -52.461194 0.001854 1.658653 -0.034920 0.000292 -0.164858 0.028585 0.000000 0.000000 0.000000 0.000000 0.000000 0.000000 0.000000 15.919475 -19.083667 -0.203694 66.000875 -8.778479 -5.593725 4.182081 28.329944 0.015111 4.975331 4.988892 0.215731 0.100015 -0.059735 -0.000000 0.000000 0.000000 0.000000 0.000000 0.000000 0.000000 
-5.456537 17.070483 0.558269 -46.615218 89.833763 -44.772644 6.239689 -4.063064 -2.602379 0.895333 -4.582754 -2.666161 -5.385488 -4.582208 3.246806 9.553350 -21.644838 -11.668425 -2.267871 -0.130432 -1.005245 0.000000 0.000000 0.000000 3.494278 18.838400 0.633770 -49.202231 17.812029 6.212145 -2.349104 -50.866094 0.001970 1.653713 0.032049 0.001561 -0.165696 0.015849 0.000000 0.000000 0.000000 0.000000 0.000000 0.000000 0.000000 15.864232 -18.604444 -0.200702 65.419092 -7.647688 -5.196464 4.184484 28.225597 0.014947 5.009933 4.866575 0.212028 0.100094 -0.059857 -0.000000 0.000000 0.000000 0.000000 0.000000 0.000000 0.000000 
-5.238601 17.082724 0.553643 -12.179886 88.573271 -10.248958 6.575704 -3.542292 -2.531612 0.900198 -4.080754 -2.670920 -5.422957 -4.077670 3.213611 9.455141 -21.225576 -11.584845 -2.303229 -0.135088 -0.985461 0.000000 0.000000 0.000000 3.207638 19.206121 0.575152 -50.388867 18.269116 6.186437 -2.463236 -49.191688 0.002034 1.513777 0.107150 0.002697 -0.164529 0.001948 0.000000 0.000000 0.000000 0.000000 0.000000 0.000000 0.000000 15.782172 -17.930544 -0.151348 64.822716 -6.519575 -4.772576 4.194914 28.150385 0.014994 5.063443 4.746463 0.209136 0.100690 -0.061372 -0.000000 0.000000 0.000000 0.000000 0.000000 0.000000 0.000000 
-5.021762 17.097473 0.547340 4.023001 87.728182 6.032612 6.268610 -3.155457 -2.499486 0.806350 -3.672123 -2.677359 -5.408154 -3.670215 3.186687 9.355860 -20.770737 -11.481248 -2.334368 -0.139300 -0.960220 0.000000 0.000000 0.000000 2.952713 19.504685 0.534989 -51.640538 18.696153 6.027713 -2.594727 -47.440927 0.001910 1.245124 0.206447 0.003828 -0.163579 -0.011259 -0.000000 0.000000 0.000000 0.000000 0.000000 0.000000 0.000000 15.688190 -17.282331 -0.114459 64.215303 -5.458340 -4.361229 4.190218 28.138216 0.014922 5.129663 4.624420 0.206640 0.100191 -0.062521 -0.000000 0.000000 0.000000 0.000000 0.000000 0.000000 0.000000 
-4.806360 17.114133 0.539239 12.269729 87.251050 14.347262 5.933501 -2.885609 -2.495264 0.725773 -3.379099 -2.685999 -5.371612 -3.380530 3.163517 9.248924 -20.290401 -11.367188 -2.361572 -0.143326 -0.931891 0.000000 0.000000 0.000000 2.720785 19.731765 0.517903 -52.964097 19.093926 5.723563 -2.739276 -45.625221 0.001485 0.866983 0.344757 0.004357 -0.162417 -0.023051 -0.000000 0.000000 0.000000 0.000000 0.000000 0.000000 0.000000 15.560559 -16.668814 -0.092207 63.589584 -4.462433 -3.956837 4.176562 28.196926 0.014758 5.196460 4.500180 0.203941 0.099265 -0.063070 -0.000000 0.000000 0.000000 0.000000 0.000000 0.000000 0.000000 
-4.592676 17.132022 0.529374 17.268396 86.940685 19.401783 5.647372 -2.657368 -2.484077 0.661935 -3.130120 -2.692546 -5.325413 -3.135682 3.142165 9.138948 -19.795578 -11.249850 -2.380800 -0.146665 -0.902579 0.000000 0.000000 0.000000 2.506377 19.932278 0.515296 -54.344794 19.468287 5.271706 -2.891429 -43.764123 0.000701 0.405609 0.533439 0.003781 -0.160990 -0.033567 -0.000000 0.000000 0.000000 0.000000 0.000000 0.000000 0.000000 15.388835 -16.064501 -0.073298 62.946040 -3.513349 -3.535921 4.156029 28.322932 0.014550 5.246821 4.376395 0.200340 0.098302 -0.063364 -0.000000 0.000000 0.000000 0.000000 0.000000 0.000000 0.000000 
-4.380930 17.150307 0.517829 20.821004 86.722383 22.993442 5.384950 -2.448725 -2.449636 0.606827 -2.900943 -2.694447 -5.271408 -2.911063 3.121690 9.028675 -19.289923 -11.133049 -2.390048 -0.149042 -0.873414 0.000000 0.000000 0.000000 2.308082 20.124449 0.525215 -55.763454 19.818584 4.685583 -3.047521 -41.877802 -0.000446 -0.107990 0.779249 0.001302 -0.159495 -0.042852 -0.000000 0.000000 0.000000 0.000000 0.000000 0.000000 0.000000 15.170078 -15.461025 -0.054032 62.288584 -2.611045 -3.096531 4.127618 28.527020 0.014308 5.275094 4.250103 0.195837 0.097349 -0.063567 -0.000000 0.000000 0.000000 0.000000 0.000000 0.000000 0.000000 
